<svg width="104" height="19" viewBox="0 0 104 19" fill="none" xmlns="http://www.w3.org/2000/svg">
<g clip-path="url(#clip0_2_13)">
<path d="M10 15.27L16.18 19L14.54 11.97L20 7.24L12.81 6.63L10 0L7.19 6.63L0 7.24L5.46 11.97L3.82 19L10 15.27Z" fill="#FBBC04"/>
</g>
<g clip-path="url(#clip1_2_13)">
<path d="M31 15.27L37.18 19L35.54 11.97L41 7.24L33.81 6.63L31 0L28.19 6.63L21 7.24L26.46 11.97L24.82 19L31 15.27Z" fill="#FBBC04"/>
</g>
<g clip-path="url(#clip2_2_13)">
<path d="M52 15.27L58.18 19L56.54 11.97L62 7.24L54.81 6.63L52 0L49.19 6.63L42 7.24L47.46 11.97L45.82 19L52 15.27Z" fill="#FBBC04"/>
</g>
<g clip-path="url(#clip3_2_13)">
<path d="M73 15.27L79.18 19L77.54 11.97L83 7.24L75.81 6.63L73 0L70.19 6.63L63 7.24L68.46 11.97L66.82 19L73 15.27Z" fill="#FBBC04"/>
</g>
<g clip-path="url(#clip4_2_13)">
<path d="M94 15.27L100.18 19L98.54 11.97L104 7.24L96.81 6.63L94 0L91.19 6.63L84 7.24L89.46 11.97L87.82 19L94 15.27Z" fill="#FBBC04"/>
</g>
<defs>
<clipPath id="clip0_2_13">
<rect width="20" height="19" fill="white"/>
</clipPath>
<clipPath id="clip1_2_13">
<rect width="20" height="19" fill="white" transform="translate(21)"/>
</clipPath>
<clipPath id="clip2_2_13">
<rect width="20" height="19" fill="white" transform="translate(42)"/>
</clipPath>
<clipPath id="clip3_2_13">
<rect width="20" height="19" fill="white" transform="translate(63)"/>
</clipPath>
<clipPath id="clip4_2_13">
<rect width="20" height="19" fill="white" transform="translate(84)"/>
</clipPath>
</defs>
</svg>
